<mxfile host="app.diagrams.net" modified="2021-09-02T04:44:14.051Z" agent="5.0 (Windows NT 10.0; Win64; x64) AppleWebKit/537.36 (KHTML, like Gecko) Chrome/93.0.4577.58 Safari/537.36" etag="N79QLWqJCiVqIFnq4NtT" version="15.0.5" type="github">
  <diagram id="8od6tUKybuPJnCF7CEde" name="Page-1">
    <mxGraphModel dx="868" dy="454" grid="1" gridSize="10" guides="1" tooltips="1" connect="1" arrows="1" fold="1" page="1" pageScale="1" pageWidth="827" pageHeight="1169" math="0" shadow="0">
      <root>
        <mxCell id="0" />
        <mxCell id="1" parent="0" />
        <mxCell id="F-lzn5LU5YgXjF6LAWvA-3" value="" style="edgeStyle=orthogonalEdgeStyle;rounded=0;orthogonalLoop=1;jettySize=auto;html=1;" edge="1" parent="1" source="F-lzn5LU5YgXjF6LAWvA-1" target="F-lzn5LU5YgXjF6LAWvA-2">
          <mxGeometry relative="1" as="geometry" />
        </mxCell>
        <mxCell id="F-lzn5LU5YgXjF6LAWvA-1" value="Mulai" style="strokeWidth=2;html=1;shape=mxgraph.flowchart.start_1;whiteSpace=wrap;" vertex="1" parent="1">
          <mxGeometry x="364" y="40" width="100" height="60" as="geometry" />
        </mxCell>
        <mxCell id="F-lzn5LU5YgXjF6LAWvA-12" value="" style="edgeStyle=orthogonalEdgeStyle;rounded=0;orthogonalLoop=1;jettySize=auto;html=1;" edge="1" parent="1" source="F-lzn5LU5YgXjF6LAWvA-2" target="F-lzn5LU5YgXjF6LAWvA-11">
          <mxGeometry relative="1" as="geometry" />
        </mxCell>
        <mxCell id="F-lzn5LU5YgXjF6LAWvA-2" value="&lt;font style=&quot;font-size: 11px&quot;&gt;Ketik kueri yang dicari&lt;/font&gt;" style="whiteSpace=wrap;html=1;strokeWidth=2;" vertex="1" parent="1">
          <mxGeometry x="354" y="180" width="120" height="60" as="geometry" />
        </mxCell>
        <mxCell id="F-lzn5LU5YgXjF6LAWvA-14" value="" style="edgeStyle=orthogonalEdgeStyle;rounded=0;orthogonalLoop=1;jettySize=auto;html=1;" edge="1" parent="1" source="F-lzn5LU5YgXjF6LAWvA-11" target="F-lzn5LU5YgXjF6LAWvA-13">
          <mxGeometry relative="1" as="geometry" />
        </mxCell>
        <mxCell id="F-lzn5LU5YgXjF6LAWvA-16" value="" style="edgeStyle=orthogonalEdgeStyle;rounded=0;orthogonalLoop=1;jettySize=auto;html=1;entryX=0.5;entryY=0;entryDx=0;entryDy=0;entryPerimeter=0;" edge="1" parent="1" source="F-lzn5LU5YgXjF6LAWvA-11" target="F-lzn5LU5YgXjF6LAWvA-41">
          <mxGeometry relative="1" as="geometry" />
        </mxCell>
        <mxCell id="F-lzn5LU5YgXjF6LAWvA-11" value="Hasil kueri" style="rhombus;whiteSpace=wrap;html=1;strokeWidth=2;" vertex="1" parent="1">
          <mxGeometry x="354" y="310" width="120" height="120" as="geometry" />
        </mxCell>
        <mxCell id="F-lzn5LU5YgXjF6LAWvA-32" value="" style="edgeStyle=orthogonalEdgeStyle;rounded=0;orthogonalLoop=1;jettySize=auto;html=1;" edge="1" parent="1" source="F-lzn5LU5YgXjF6LAWvA-13" target="F-lzn5LU5YgXjF6LAWvA-31">
          <mxGeometry relative="1" as="geometry" />
        </mxCell>
        <mxCell id="F-lzn5LU5YgXjF6LAWvA-13" value="Filter berdasarkan keahlian, jenis kelamin, naik/turun" style="whiteSpace=wrap;html=1;strokeWidth=2;" vertex="1" parent="1">
          <mxGeometry x="100" y="340" width="120" height="60" as="geometry" />
        </mxCell>
        <mxCell id="F-lzn5LU5YgXjF6LAWvA-18" value="" style="edgeStyle=orthogonalEdgeStyle;rounded=0;orthogonalLoop=1;jettySize=auto;html=1;" edge="1" parent="1" source="F-lzn5LU5YgXjF6LAWvA-15" target="F-lzn5LU5YgXjF6LAWvA-46">
          <mxGeometry relative="1" as="geometry">
            <mxPoint x="414" y="930" as="targetPoint" />
          </mxGeometry>
        </mxCell>
        <mxCell id="F-lzn5LU5YgXjF6LAWvA-15" value="Hubungi Ilmuwan" style="whiteSpace=wrap;html=1;strokeWidth=2;" vertex="1" parent="1">
          <mxGeometry x="354" y="810" width="120" height="60" as="geometry" />
        </mxCell>
        <mxCell id="F-lzn5LU5YgXjF6LAWvA-20" value="" style="edgeStyle=orthogonalEdgeStyle;rounded=0;orthogonalLoop=1;jettySize=auto;html=1;entryX=1;entryY=0.5;entryDx=0;entryDy=0;exitX=1;exitY=0.5;exitDx=0;exitDy=0;exitPerimeter=0;" edge="1" parent="1" source="F-lzn5LU5YgXjF6LAWvA-46" target="F-lzn5LU5YgXjF6LAWvA-11">
          <mxGeometry relative="1" as="geometry">
            <mxPoint x="474" y="960" as="sourcePoint" />
            <mxPoint x="640" y="350" as="targetPoint" />
            <Array as="points">
              <mxPoint x="660" y="980" />
              <mxPoint x="660" y="370" />
            </Array>
          </mxGeometry>
        </mxCell>
        <mxCell id="F-lzn5LU5YgXjF6LAWvA-22" value="" style="strokeWidth=2;html=1;shape=mxgraph.flowchart.annotation_2;align=left;labelPosition=right;pointerEvents=1;direction=west;" vertex="1" parent="1">
          <mxGeometry x="414" y="430" width="50" height="100" as="geometry" />
        </mxCell>
        <mxCell id="F-lzn5LU5YgXjF6LAWvA-23" value="Ketemu" style="text;html=1;strokeColor=none;fillColor=none;align=center;verticalAlign=middle;whiteSpace=wrap;rounded=0;" vertex="1" parent="1">
          <mxGeometry x="474" y="470" width="40" height="20" as="geometry" />
        </mxCell>
        <mxCell id="F-lzn5LU5YgXjF6LAWvA-45" value="" style="edgeStyle=orthogonalEdgeStyle;rounded=0;orthogonalLoop=1;jettySize=auto;html=1;" edge="1" parent="1" source="F-lzn5LU5YgXjF6LAWvA-28" target="F-lzn5LU5YgXjF6LAWvA-15">
          <mxGeometry relative="1" as="geometry" />
        </mxCell>
        <mxCell id="F-lzn5LU5YgXjF6LAWvA-28" value="Informasi mengenai ilmuwan" style="strokeWidth=2;html=1;shape=mxgraph.flowchart.display;whiteSpace=wrap;" vertex="1" parent="1">
          <mxGeometry x="349" y="710" width="130" height="60" as="geometry" />
        </mxCell>
        <mxCell id="F-lzn5LU5YgXjF6LAWvA-29" value="" style="strokeWidth=2;html=1;shape=mxgraph.flowchart.annotation_2;align=left;labelPosition=right;pointerEvents=1;direction=south;" vertex="1" parent="1">
          <mxGeometry x="240" y="320" width="100" height="50" as="geometry" />
        </mxCell>
        <mxCell id="F-lzn5LU5YgXjF6LAWvA-30" value="Tidak ketemu" style="text;html=1;strokeColor=none;fillColor=none;align=center;verticalAlign=middle;whiteSpace=wrap;rounded=0;" vertex="1" parent="1">
          <mxGeometry x="245" y="290" width="90" height="20" as="geometry" />
        </mxCell>
        <mxCell id="F-lzn5LU5YgXjF6LAWvA-37" value="" style="edgeStyle=orthogonalEdgeStyle;rounded=0;orthogonalLoop=1;jettySize=auto;html=1;" edge="1" parent="1" source="F-lzn5LU5YgXjF6LAWvA-31" target="F-lzn5LU5YgXjF6LAWvA-41">
          <mxGeometry relative="1" as="geometry">
            <mxPoint x="340" y="580" as="targetPoint" />
            <Array as="points">
              <mxPoint x="160" y="600" />
            </Array>
          </mxGeometry>
        </mxCell>
        <mxCell id="F-lzn5LU5YgXjF6LAWvA-31" value="Menampilkan hasil filter" style="whiteSpace=wrap;html=1;strokeWidth=2;" vertex="1" parent="1">
          <mxGeometry x="100" y="490" width="120" height="60" as="geometry" />
        </mxCell>
        <mxCell id="F-lzn5LU5YgXjF6LAWvA-43" value="" style="edgeStyle=orthogonalEdgeStyle;rounded=0;orthogonalLoop=1;jettySize=auto;html=1;" edge="1" parent="1" source="F-lzn5LU5YgXjF6LAWvA-41">
          <mxGeometry relative="1" as="geometry">
            <mxPoint x="410" y="585" as="targetPoint" />
            <Array as="points">
              <mxPoint x="410" y="585" />
              <mxPoint x="410" y="585" />
            </Array>
          </mxGeometry>
        </mxCell>
        <mxCell id="F-lzn5LU5YgXjF6LAWvA-44" value="" style="edgeStyle=orthogonalEdgeStyle;rounded=0;orthogonalLoop=1;jettySize=auto;html=1;" edge="1" parent="1" source="F-lzn5LU5YgXjF6LAWvA-41" target="F-lzn5LU5YgXjF6LAWvA-28">
          <mxGeometry relative="1" as="geometry" />
        </mxCell>
        <mxCell id="F-lzn5LU5YgXjF6LAWvA-41" value="PIlih ilmuwan" style="strokeWidth=2;html=1;shape=mxgraph.flowchart.decision;whiteSpace=wrap;" vertex="1" parent="1">
          <mxGeometry x="364" y="550" width="100" height="100" as="geometry" />
        </mxCell>
        <mxCell id="F-lzn5LU5YgXjF6LAWvA-48" value="" style="edgeStyle=orthogonalEdgeStyle;rounded=0;orthogonalLoop=1;jettySize=auto;html=1;" edge="1" parent="1" source="F-lzn5LU5YgXjF6LAWvA-46">
          <mxGeometry relative="1" as="geometry">
            <mxPoint x="554" y="980" as="targetPoint" />
          </mxGeometry>
        </mxCell>
        <mxCell id="F-lzn5LU5YgXjF6LAWvA-53" value="" style="edgeStyle=orthogonalEdgeStyle;rounded=0;orthogonalLoop=1;jettySize=auto;html=1;" edge="1" parent="1" source="F-lzn5LU5YgXjF6LAWvA-46" target="F-lzn5LU5YgXjF6LAWvA-51">
          <mxGeometry relative="1" as="geometry" />
        </mxCell>
        <mxCell id="F-lzn5LU5YgXjF6LAWvA-46" value="Cari lagi" style="strokeWidth=2;html=1;shape=mxgraph.flowchart.decision;whiteSpace=wrap;" vertex="1" parent="1">
          <mxGeometry x="364" y="930" width="100" height="100" as="geometry" />
        </mxCell>
        <mxCell id="F-lzn5LU5YgXjF6LAWvA-49" value="" style="strokeWidth=2;html=1;shape=mxgraph.flowchart.annotation_2;align=left;labelPosition=right;pointerEvents=1;direction=south;" vertex="1" parent="1">
          <mxGeometry x="500" y="930" width="100" height="50" as="geometry" />
        </mxCell>
        <mxCell id="F-lzn5LU5YgXjF6LAWvA-50" value="Ya" style="text;html=1;strokeColor=none;fillColor=none;align=center;verticalAlign=middle;whiteSpace=wrap;rounded=0;" vertex="1" parent="1">
          <mxGeometry x="530" y="900" width="40" height="20" as="geometry" />
        </mxCell>
        <mxCell id="F-lzn5LU5YgXjF6LAWvA-51" value="Selesai" style="strokeWidth=2;html=1;shape=mxgraph.flowchart.terminator;whiteSpace=wrap;" vertex="1" parent="1">
          <mxGeometry x="364" y="1080" width="100" height="60" as="geometry" />
        </mxCell>
        <mxCell id="F-lzn5LU5YgXjF6LAWvA-54" value="" style="strokeWidth=2;html=1;shape=mxgraph.flowchart.annotation_2;align=left;labelPosition=right;pointerEvents=1;direction=west;" vertex="1" parent="1">
          <mxGeometry x="414" y="1030" width="50" height="40" as="geometry" />
        </mxCell>
        <mxCell id="F-lzn5LU5YgXjF6LAWvA-55" value="Tidak" style="text;html=1;strokeColor=none;fillColor=none;align=center;verticalAlign=middle;whiteSpace=wrap;rounded=0;" vertex="1" parent="1">
          <mxGeometry x="470" y="1040" width="40" height="20" as="geometry" />
        </mxCell>
      </root>
    </mxGraphModel>
  </diagram>
</mxfile>
